<svg xmlns="http://www.w3.org/2000/svg" viewBox="0 0 410 404"><defs><linearGradient id="a" x1="50%" x2="50%" y1="0%" y2="100%"><stop stop-color="#41D1FF"/><stop offset="1" stop-color="#BD34FE"/></linearGradient><linearGradient id="b" x1="50%" x2="50%" y1="0%" y2="100%"><stop stop-color="#FFEA83"/><stop offset="0.083" stop-color="#FFDD35"/><stop offset="1" stop-color="#FFA800"/></linearGradient></defs><g fill="none"><path fill="url(#a)" d="M399 53L206 389c-6 10-20 10-26 0L11 53C4 43 11 30 23 30h364c12 0 19 13 12 23z"/><path fill="url(#b)" d="M212 32l-6 10v324l6 10c6 10 20 10 26 0l193-336c7-10 0-23-12-23H229c-12 0-19 13-12 23z"/><path fill="#FFF" fill-opacity="0.2" d="M212 32l-6 10v324l6 10c6 10 20 10 26 0l193-336c7-10 0-23-12-23H229c-12 0-19 13-12 23z"/></g></svg>